<svg height="200px" width="200px" version="1.1" id="_x32_" xmlns="http://www.w3.org/2000/svg" xmlns:xlink="http://www.w3.org/1999/xlink" viewBox="-51.2 -51.2 614.40 614.40" xml:space="preserve" fill="#ffffff" stroke="#ffffff"><g id="SVGRepo_bgCarrier" stroke-width="0" transform="translate(76.80000000000001,76.80000000000001), scale(0.7)"><rect x="-51.2" y="-51.2" width="614.40" height="614.40" rx="307.2" fill="#000000" strokewidth="0"></rect></g><g id="SVGRepo_tracerCarrier" stroke-linecap="round" stroke-linejoin="round"></g><g id="SVGRepo_iconCarrier"> <style type="text/css"> .st0{fill:#1ed760;} </style> <g> <path class="st0" d="M256,0C114.625,0,0,114.625,0,256c0,141.374,114.625,256,256,256c141.374,0,256-114.626,256-256 C512,114.625,397.374,0,256,0z M351.062,258.898l-144,85.945c-1.031,0.626-2.344,0.657-3.406,0.031 c-1.031-0.594-1.687-1.702-1.687-2.937v-85.946v-85.946c0-1.218,0.656-2.343,1.687-2.938c1.062-0.609,2.375-0.578,3.406,0.031 l144,85.962c1.031,0.586,1.641,1.718,1.641,2.89C352.703,257.187,352.094,258.297,351.062,258.898z"></path> </g> </g></svg>