<svg xmlns="http://www.w3.org/2000/svg" shape-rendering="geometricPrecision" text-rendering="geometricPrecision" image-rendering="optimizeQuality" fill-rule="evenodd" clip-rule="evenodd" viewBox="0 0 512 512"><path d="M105 0h302c57.928.154 104.845 47.072 105 104.995V407c-.155 57.925-47.072 104.844-104.996 104.998L105 512C47.074 511.844.156 464.925.002 407.003L0 105C.156 47.072 47.074.154 104.997 0H105zm150.998 71.497C154.101 71.497 71.492 154.102 71.492 256c0 101.902 82.609 184.504 184.506 184.504 101.909 0 184.509-82.6 184.509-184.504 0-101.892-82.6-184.495-184.512-184.495l.003-.011v.003zm84.615 266.109c-3.304 5.419-10.399 7.14-15.821 3.811-43.318-26.461-97.854-32.452-162.079-17.78-6.189 1.41-12.357-2.467-13.77-8.659-1.415-6.191 2.448-12.359 8.652-13.769 70.284-16.057 130.572-9.143 179.207 20.578 5.421 3.326 7.14 10.397 3.811 15.819zm22.584-50.238c-4.166 6.767-13.022 8.904-19.786 4.742-49.597-30.485-125.194-39.315-183.857-21.504-7.607 2.296-15.642-1.991-17.949-9.584-2.293-7.61 1.996-15.627 9.592-17.94 67.006-20.331 150.308-10.484 207.264 24.514 6.764 4.166 8.901 13.023 4.737 19.779l.002-.004-.003-.003zm1.94-52.313c-59.468-35.32-157.578-38.567-214.353-21.336-9.116 2.766-18.759-2.379-21.521-11.499-2.762-9.123 2.381-18.756 11.502-21.526 65.175-19.786 173.52-15.963 241.984 24.68 8.218 4.87 10.908 15.459 6.037 23.648-4.849 8.2-15.468 10.904-23.641 6.033h-.008z"/></svg>