<!DOCTYPE svg PUBLIC "-//W3C//DTD SVG 1.1//EN" "http://www.w3.org/Graphics/SVG/1.1/DTD/svg11.dtd">

<!-- Uploaded to: SVG Repo, www.svgrepo.com, Transformed by: SVG Repo Mixer Tools -->
<svg fill="white" height="800px" width="800px" version="1.1" id="Layer_1" xmlns="http://www.w3.org/2000/svg" xmlns:xlink="http://www.w3.org/1999/xlink" viewBox="0 0 512.005 512.005" xml:space="preserve" stroke="#a6a6a6">

<g id="SVGRepo_bgCarrier" stroke-width="0"/>

<g id="SVGRepo_tracerCarrier" stroke-linecap="round" stroke-linejoin="round"/>

<g id="SVGRepo_iconCarrier"> <g> <g> <path d="M490.861,2.971c-6.485-3.84-14.507-3.968-21.141-0.32L53.336,231.664V21.338c0-11.776-9.557-21.333-21.333-21.333 S10.669,9.562,10.669,21.338v469.333c0,11.776,9.557,21.333,21.333,21.333s21.333-9.557,21.333-21.333V280.346L469.72,509.36 c3.221,1.771,6.741,2.645,10.283,2.645c3.755,0,7.531-1.003,10.859-2.965c6.507-3.84,10.475-10.837,10.475-18.368V21.338 C501.336,13.786,497.368,6.81,490.861,2.971z"/> </g> </g> </g>

</svg>