<?xml version="1.0" encoding="utf-8"?><!-- Uploaded to: SVG Repo, www.svgrepo.com, Generator: SVG Repo Mixer Tools -->
<svg version="1.1" id="Uploaded to svgrepo.com" xmlns="http://www.w3.org/2000/svg" xmlns:xlink="http://www.w3.org/1999/xlink" 
	 width="800px" height="800px" viewBox="0 0 32 32" xml:space="preserve">
<style type="text/css">
	.puchipuchi_een{fill:#111918;}
</style>
<path class="puchipuchi_een" d="M1,10c0-1.104,0.896-2,2-2h2c2.356,0,4.405,1.394,6.31,3.322l-2.512,3.15
	C7.455,13.041,6.137,12,5,12H3C1.896,12,1,11.104,1,10z M22,10h2.172l-0.586,0.586c-0.781,0.781-0.781,2.047,0,2.828
	s2.047,0.781,2.828,0l4-4c0.781-0.781,0.781-2.047,0-2.828l-4-4c-0.781-0.781-2.047-0.781-2.828,0s-0.781,2.047,0,2.828L24.172,6H22
	c-3.972,0-7.073,3.947-10.072,7.765C9.631,16.688,7.028,20,5,20H3c-1.104,0-2,0.896-2,2s0.896,2,2,2h2
	c3.972,0,7.073-3.947,10.072-7.765C17.369,13.312,19.972,10,22,10z M26.414,18.586c-0.781-0.781-2.047-0.781-2.828,0
	s-0.781,2.047,0,2.828L24.172,22H22c-1.606,0-3.572-2.078-5.461-4.394l-2.581,3.153C16.353,23.614,18.913,26,22,26h2.172
	l-0.586,0.586c-0.781,0.781-0.781,2.047,0,2.828s2.047,0.781,2.828,0l4-4c0.781-0.781,0.781-2.047,0-2.828L26.414,18.586z"/>
</svg>