<?xml version="1.0" encoding="utf-8"?><!-- Uploaded to: SVG Repo, www.svgrepo.com, Generator: SVG Repo Mixer Tools -->
<svg width="800px" height="800px" viewBox="0 0 24 24" fill="none" xmlns="http://www.w3.org/2000/svg">
<path d="M16 9V9C17.2111 10.8167 17.2111 13.1833 16 15V15" stroke="rgb(121, 120, 120)" stroke-width="2" stroke-linecap="round"/>
<path d="M20 8V8C21.259 10.5181 21.259 13.4819 20 16V16" stroke="rgb(121, 120, 120)" stroke-width="2" stroke-linecap="round"/>
<path d="M7.4172 8.65233L10.5397 6.05023C11.5167 5.23607 13 5.93081 13 7.20256V16.7974C13 18.0692 11.5167 18.7639 10.5397 17.9498L7.4172 15.3477C7.14763 15.123 6.80783 15 6.45693 15H4.5C3.67157 15 3 14.3284 3 13.5V10.5C3 9.67157 3.67157 9 4.5 9H6.45693C6.80783 9 7.14763 8.87698 7.4172 8.65233Z" stroke="rgb(121, 120, 120)" stroke-width="2"/>
</svg>