<?xml version="1.0" encoding="UTF-8" standalone="no"?>
<!DOCTYPE svg PUBLIC "-//W3C//DTD SVG 20010904//EN"
              "http://www.w3.org/TR/2001/REC-SVG-20010904/DTD/svg10.dtd">

<svg xmlns="http://www.w3.org/2000/svg"
     width="2.66667in" height="2.66667in"
     viewBox="0 0 800 800">
  <path id="Unnamed"
        fill="#eeeeeee0" stroke="none" stroke-width="1"
        d="M 1056.00,671.00
           C 1056.00,671.00 1050.00,450.00 926.00,499.00
             833.00,580.00 766.00,507.00 637.00,473.00
             508.00,439.00 332.00,638.00 183.00,629.00
             34.00,620.00 59.00,532.00 -90.00,566.00
             -164.00,548.00 -87.00,798.00 -38.00,812.00
             11.00,826.00 826.00,841.00 851.00,830.00
             876.00,819.00 864.00,567.00 849.00,546.00M -72.00,44.00
           C -32.00,218.00 192.00,266.00 310.00,250.00
             428.00,234.00 461.00,75.00 590.00,105.00
             719.00,135.00 935.00,83.00 929.00,-21.00
             766.00,-26.00 40.00,-11.00 -56.00,-27.00
             -75.00,93.00 -73.00,283.00 -55.00,341.00M 1012.00,218.00M 938.00,243.00M 964.00,228.00M 925.00,125.00M 1040.00,74.00" />
</svg>
