<?xml version="1.0" encoding="UTF-8" standalone="no"?>
<!DOCTYPE svg PUBLIC "-//W3C//DTD SVG 20010904//EN"
              "http://www.w3.org/TR/2001/REC-SVG-20010904/DTD/svg10.dtd">

<svg xmlns="http://www.w3.org/2000/svg"
     width="144px" height="144px"
     viewBox="0 0 800 800">
  <path id="Unnamed"
        fill="#55ccdde0" stroke="none" stroke-width="1"
        d="M 1060.00,663.00
           C 1060.00,663.00 952.00,566.00 828.00,615.00
             735.00,696.00 670.00,707.00 559.00,649.00
             448.00,591.00 395.00,471.00 279.00,478.00
             163.00,485.00 140.00,563.00 -9.00,597.00
             -83.00,579.00 -83.00,790.00 -34.00,804.00
             15.00,818.00 830.00,833.00 855.00,822.00
             880.00,811.00 868.00,559.00 853.00,538.00M -15.00,322.00
           C 74.00,276.00 63.00,116.00 159.00,89.00
             255.00,62.00 304.00,180.00 449.00,175.00
             594.00,170.00 641.00,43.00 665.00,-18.00
             502.00,-23.00 40.00,-11.00 -56.00,-27.00
             -75.00,93.00 -73.00,283.00 -55.00,341.00M 1012.00,218.00" />
</svg>
