<?xml version="1.0" encoding="UTF-8" standalone="no"?>
<!DOCTYPE svg PUBLIC "-//W3C//DTD SVG 20010904//EN"
              "http://www.w3.org/TR/2001/REC-SVG-20010904/DTD/svg10.dtd">

<svg xmlns="http://www.w3.org/2000/svg"
     width="2.66667in" height="2.66667in"
     viewBox="0 0 800 800">
  <path id="Unnamed"
        fill="#55ccdde0" stroke="none" stroke-width="1"
        d="M 1056.00,671.00
           C 1056.00,671.00 1070.00,526.00 946.00,575.00
             950.00,726.00 815.00,582.00 622.00,572.00
             429.00,562.00 398.00,642.00 270.00,581.00
             142.00,520.00 101.00,359.00 -71.00,378.00
             -145.00,360.00 -87.00,798.00 -38.00,812.00
             11.00,826.00 826.00,841.00 851.00,830.00
             876.00,819.00 864.00,567.00 849.00,546.00M -113.00,163.00
           C 73.00,183.00 122.00,308.00 224.00,279.00
             326.00,250.00 458.00,50.00 615.00,70.00
             772.00,90.00 935.00,83.00 929.00,-21.00
             766.00,-26.00 40.00,-11.00 -56.00,-27.00
             -75.00,93.00 -73.00,283.00 -55.00,341.00M 1012.00,218.00M 938.00,243.00M 964.00,228.00M 925.00,125.00M 1040.00,74.00M 1018.00,270.00M 997.00,424.00M 931.00,496.00M 915.00,382.00M 936.00,311.00" />
</svg>
