<?xml version="1.0" encoding="UTF-8" standalone="no"?>
<!DOCTYPE svg PUBLIC "-//W3C//DTD SVG 20010904//EN"
              "http://www.w3.org/TR/2001/REC-SVG-20010904/DTD/svg10.dtd">

<svg xmlns="http://www.w3.org/2000/svg"
     width="2.66667in" height="2.66667in"
     viewBox="0 0 800 800">
  <path id="Pink"
        fill="#ee22cce0" stroke="none" stroke-width="1"
        d="M 1056.00,671.00
           C 1056.00,671.00 994.00,778.00 870.00,827.00
             777.00,908.00 717.00,605.00 598.00,560.00
             479.00,515.00 314.00,605.00 241.00,566.00
             168.00,527.00 61.00,358.00 -88.00,392.00
             -162.00,374.00 -87.00,798.00 -38.00,812.00
             11.00,826.00 826.00,841.00 851.00,830.00
             876.00,819.00 864.00,567.00 849.00,546.00M -100.00,176.00
           C 0.00,259.00 165.00,137.00 283.00,121.00
             401.00,105.00 458.00,160.00 559.00,146.00
             660.00,132.00 729.00,46.00 753.00,-15.00
             590.00,-20.00 40.00,-11.00 -56.00,-27.00
             -75.00,93.00 -73.00,283.00 -55.00,341.00M 1012.00,218.00M 938.00,243.00M 964.00,228.00M 962.00,471.00" />
</svg>
