<?xml version="1.0" encoding="UTF-8" standalone="no"?>
<!DOCTYPE svg PUBLIC "-//W3C//DTD SVG 20010904//EN"
              "http://www.w3.org/TR/2001/REC-SVG-20010904/DTD/svg10.dtd">

<svg xmlns="http://www.w3.org/2000/svg"
     width="2.66667in" height="2.66667in"
     viewBox="0 0 800 800">
  <path id="Slate"
        fill="#557777e0" stroke="none" stroke-width="1"
        d="M 1056.00,671.00
           C 1056.00,671.00 1087.00,670.00 914.00,691.00
             741.00,712.00 605.00,514.00 407.00,510.00
             209.00,506.00 79.00,643.00 -36.00,579.00
             -151.00,515.00 -32.00,705.00 -181.00,739.00
             -255.00,721.00 -87.00,798.00 -38.00,812.00
             11.00,826.00 826.00,841.00 851.00,830.00
             876.00,819.00 864.00,567.00 849.00,546.00M -23.00,448.00
           C 61.00,339.00 86.00,135.00 182.00,108.00
             278.00,81.00 312.00,139.00 457.00,134.00
             602.00,129.00 641.00,43.00 665.00,-18.00
             502.00,-23.00 40.00,-11.00 -56.00,-27.00
             -75.00,93.00 -73.00,283.00 -55.00,341.00M 1012.00,218.00M 938.00,243.00M 1012.00,436.00M 987.00,450.00" />
</svg>
