<?xml version="1.0" encoding="UTF-8" standalone="no"?>
<!DOCTYPE svg PUBLIC "-//W3C//DTD SVG 20010904//EN"
              "http://www.w3.org/TR/2001/REC-SVG-20010904/DTD/svg10.dtd">

<svg xmlns="http://www.w3.org/2000/svg"
     width="2.66667in" height="2.66667in"
     viewBox="0 0 800 800">
  <path id="Unnamed"
        fill="#ff2222e0" stroke="none" stroke-width="1"
        d="M 1056.00,671.00
           C 1056.00,671.00 989.00,340.00 865.00,389.00
             869.00,540.00 724.00,795.00 595.00,761.00
             466.00,727.00 415.00,550.00 289.00,475.00
             163.00,400.00 59.00,461.00 -90.00,495.00
             -164.00,477.00 -87.00,798.00 -38.00,812.00
             11.00,826.00 826.00,841.00 851.00,830.00
             876.00,819.00 864.00,567.00 849.00,546.00M -116.00,167.00
           C -76.00,341.00 294.00,158.00 429.00,124.00
             564.00,90.00 820.00,57.00 949.00,87.00
             1078.00,117.00 935.00,83.00 929.00,-21.00
             766.00,-26.00 40.00,-11.00 -56.00,-27.00
             -75.00,93.00 -73.00,283.00 -55.00,341.00M 1012.00,218.00M 938.00,243.00M 964.00,228.00M 925.00,125.00M 1040.00,74.00M 1018.00,270.00" />
</svg>
