<?xml version="1.0" encoding="UTF-8"?>
<svg xmlns="http://www.w3.org/2000/svg" xmlns:xlink="http://www.w3.org/1999/xlink" viewBox="0 0 32 32" width="32px" height="32px">
<g id="surface43512346">
<path style=" stroke:none;fill-rule:nonzero;fill:rgb(40.000001%,40.000001%,40.000001%);fill-opacity:1;" d="M 25 2 C 22.25 2 20 4.25 20 7 C 20 7.34375 20.039062 7.671875 20.101562 8 L 11.039062 12.078125 C 10.125 10.828125 8.65625 10 7 10 C 4.25 10 2 12.25 2 15 C 2 17.75 4.25 20 7 20 C 8.664062 20 10.148438 19.164062 11.054688 17.898438 L 20.125 21.929688 C 20.046875 22.273438 20 22.632812 20 23 C 20 25.75 22.25 28 25 28 C 27.75 28 30 25.75 30 23 C 30 20.25 27.75 18 25 18 C 23.335938 18 21.851562 18.835938 20.945312 20.101562 L 11.875 16.078125 C 11.953125 15.726562 12 15.367188 12 15 C 12 14.625 11.953125 14.257812 11.875 13.90625 L 20.890625 9.828125 C 21.796875 11.140625 23.304688 12 25 12 C 27.75 12 30 9.75 30 7 C 30 4.25 27.75 2 25 2 Z M 25 4 C 26.671875 4 28 5.328125 28 7 C 28 8.671875 26.671875 10 25 10 C 23.328125 10 22 8.671875 22 7 C 22 5.328125 23.328125 4 25 4 Z M 7 12 C 8.671875 12 10 13.328125 10 15 C 10 16.671875 8.671875 18 7 18 C 5.328125 18 4 16.671875 4 15 C 4 13.328125 5.328125 12 7 12 Z M 25 20 C 26.671875 20 28 21.328125 28 23 C 28 24.671875 26.671875 26 25 26 C 23.328125 26 22 24.671875 22 23 C 22 21.328125 23.328125 20 25 20 Z M 25 20 "/>
</g>
</svg>
