<svg version="1.1" id="Layer_1" xmlns="http://www.w3.org/2000/svg" xmlns:xlink="http://www.w3.org/1999/xlink" x="0px" y="0px" viewBox="0 0 32 32" style="enable-background:new 0 0 32 32;" xml:space="preserve">
<g>
	<path d="M10,8h16c0.6,0,1-0.4,1-1s-0.4-1-1-1H10C9.4,6,9,6.4,9,7S9.4,8,10,8z" id="id_101" style="fill: rgb(255, 255, 255);"></path>
	<path d="M10,16h16c0.6,0,1-0.4,1-1s-0.4-1-1-1H10c-0.6,0-1,0.4-1,1S9.4,16,10,16z" id="id_102" style="fill: rgb(255, 255, 255);"></path>
	<path d="M10,24h16c0.6,0,1-0.4,1-1s-0.4-1-1-1H10c-0.6,0-1,0.4-1,1S9.4,24,10,24z" id="id_103" style="fill: rgb(255, 255, 255);"></path>
	<path d="M4.8,9.6c1.5,0,2.8-1.3,2.8-2.8S6.3,4,4.8,4S2,5.3,2,6.8S3.3,9.6,4.8,9.6z" id="id_104" style="fill: rgb(255, 255, 255);"></path>
	<circle cx="4.8" cy="15" r="2.8" id="id_105" style="fill: rgb(255, 255, 255);"></circle>
	<path d="M4.8,26c1.5,0,2.8-1.3,2.8-2.8s-1.3-2.8-2.8-2.8S2,21.7,2,23.2S3.3,26,4.8,26z" id="id_106" style="fill: rgb(255, 255, 255);"></path>
</g>
</svg>