<?xml version="1.0" ?><svg width="24px" height="24px" viewBox="0 0 24 24" fill="none" xmlns="http://www.w3.org/2000/svg"><path d="M17.0099 13.48C16.0099 13.48 15.1899 12.66 15.1899 11.66C15.1899 10.66 16.0099 9.84009 17.0099 9.84009C18.0099 9.84009 18.8299 10.66 18.8299 11.66C18.8299 12.66 18.0099 13.48 17.0099 13.48ZM17.0099 11.3401C16.8299 11.3401 16.6899 11.48 16.6899 11.66C16.6899 11.84 16.8299 11.98 17.0099 11.98C17.1899 11.98 17.3299 11.84 17.3299 11.66C17.3299 11.48 17.1899 11.3401 17.0099 11.3401Z" fill="black"/><path d="M12.02 16.45H6C2.4 16.45 1.25 15.3 1.25 11.7V6C1.25 2.4 2.4 1.25 6 1.25H16C19.6 1.25 20.75 2.4 20.75 6V7.78998C20.75 7.99998 20.66 8.20998 20.5 8.34998C20.34 8.48998 20.13 8.56003 19.91 8.53003C19.69 8.50003 19.43 8.48999 19.15 8.48999H14.87C13.14 8.48999 12.77 8.86003 12.77 10.59V15.7C12.77 16.11 12.43 16.45 12.02 16.45ZM6 2.75C3.21 2.75 2.75 3.21 2.75 6V11.7C2.75 14.49 3.21 14.95 6 14.95H11.27V10.59C11.27 8.03003 12.31 6.98999 14.87 6.98999H19.15C19.18 6.98999 19.22 6.98999 19.25 6.98999V6C19.25 3.21 18.79 2.75 16 2.75H6Z" fill="black"/><path d="M9 20.7499C8.59 20.7499 8.25 20.4099 8.25 19.9999V15.7C8.25 15.29 8.59 14.95 9 14.95C9.41 14.95 9.75 15.29 9.75 15.7V19.9999C9.75 20.4099 9.41 20.7499 9 20.7499Z" fill="black"/><path d="M12 12.65H2C1.59 12.65 1.25 12.31 1.25 11.9C1.25 11.49 1.59 11.15 2 11.15H12C12.41 11.15 12.75 11.49 12.75 11.9C12.75 12.31 12.41 12.65 12 12.65Z" fill="black"/><path d="M12.0002 20.75H5.9502C5.5402 20.75 5.2002 20.41 5.2002 20C5.2002 19.59 5.5402 19.25 5.9502 19.25H12.0002C12.4102 19.25 12.7502 19.59 12.7502 20C12.7502 20.41 12.4102 20.75 12.0002 20.75Z" fill="black"/><path d="M17.0099 13.48C16.0099 13.48 15.1899 12.66 15.1899 11.66C15.1899 10.66 16.0099 9.84009 17.0099 9.84009C18.0099 9.84009 18.8299 10.66 18.8299 11.66C18.8299 12.66 18.0099 13.48 17.0099 13.48ZM17.0099 11.3401C16.8299 11.3401 16.6899 11.48 16.6899 11.66C16.6899 11.84 16.8299 11.98 17.0099 11.98C17.1899 11.98 17.3299 11.84 17.3299 11.66C17.3299 11.48 17.1899 11.3401 17.0099 11.3401Z" fill="black"/><path d="M20 7.78998C19.75 7.75998 19.46 7.73999 19.15 7.73999H14.87C12.73 7.73999 12.02 8.45003 12.02 10.59V19.15C12.02 21.29 12.73 22 14.87 22H19.15C21.29 22 22 21.29 22 19.15V10.59C22 8.76003 21.48 7.97998 20 7.78998ZM17.01 10.59C17.6 10.59 18.08 11.07 18.08 11.66C18.08 12.25 17.6 12.73 17.01 12.73C16.42 12.73 15.94 12.25 15.94 11.66C15.94 11.07 16.42 10.59 17.01 10.59ZM17.01 19.15C15.83 19.15 14.87 18.19 14.87 17.01C14.87 16.52 15.04 16.06 15.32 15.7C15.71 15.2 16.32 14.87 17.01 14.87C17.55 14.87 18.04 15.07 18.41 15.39C18.86 15.79 19.15 16.37 19.15 17.01C19.15 18.19 18.19 19.15 17.01 19.15Z" stroke="black" stroke-linecap="round" stroke-linejoin="round" stroke-miterlimit="10" stroke-width="1.5"/><path d="M17.0101 19.9C15.4201 19.9 14.1201 18.6 14.1201 17.01C14.1201 16.37 14.3401 15.74 14.7301 15.24C15.2801 14.53 16.1201 14.12 17.0101 14.12C17.7001 14.12 18.3801 14.37 18.9001 14.82C19.5401 15.39 19.9001 16.18 19.9001 17.01C19.9001 18.6 18.6001 19.9 17.0101 19.9ZM17.0101 15.62C16.5801 15.62 16.1801 15.82 15.9101 16.16C15.7201 16.4 15.6201 16.7 15.6201 17.01C15.6201 17.78 16.2401 18.4 17.0101 18.4C17.7801 18.4 18.4001 17.78 18.4001 17.01C18.4001 16.61 18.2201 16.23 17.9101 15.95C17.6701 15.74 17.3401 15.62 17.0101 15.62Z" fill="black"/><path d="M17.0099 13.48C16.0099 13.48 15.1899 12.66 15.1899 11.66C15.1899 10.66 16.0099 9.84009 17.0099 9.84009C18.0099 9.84009 18.8299 10.66 18.8299 11.66C18.8299 12.66 18.0099 13.48 17.0099 13.48ZM17.0099 11.3401C16.8299 11.3401 16.6899 11.48 16.6899 11.66C16.6899 11.84 16.8299 11.98 17.0099 11.98C17.1899 11.98 17.3299 11.84 17.3299 11.66C17.3299 11.48 17.1899 11.3401 17.0099 11.3401Z" fill="black"/></svg>