<svg xmlns="http://www.w3.org/2000/svg" width="59" height="58" id="microphone"><path fill-rule="evenodd" d="M51.52 20.388a9.723 9.723 0 0 1-8.333 2.729 9.661 9.661 0 0 1-5.352-2.73 9.627 9.627 0 0 1-2.704-5.179c-.52-3.112.488-6.292 2.704-8.506a9.615 9.615 0 0 1 6.844-2.832 9.61 9.61 0 0 1 6.842 2.832 9.618 9.618 0 0 1 2.831 6.844 9.614 9.614 0 0 1-2.831 6.842zM18.125 44.47l-4.262-4.26 18.579-20.892a13.572 13.572 0 0 0 2.657 3.806c1.158 1.157 2.503 2.053 3.958 2.719L18.124 44.47zM54.258 3.965A13.452 13.452 0 0 0 44.678 0a13.46 13.46 0 0 0-9.58 3.966c-2.866 2.865-4.267 6.88-3.886 10.914L9.757 39.001a1.935 1.935 0 0 0 .077 2.656l1.837 1.837L.567 54.596a1.933 1.933 0 0 0 1.369 3.303c.495 0 .99-.187 1.368-.567L14.408 46.23l2.27 2.269a1.932 1.932 0 0 0 2.654.077l24.232-21.561c.362.029.724.083 1.084.083a13.62 13.62 0 0 0 9.61-3.973 13.459 13.459 0 0 0 3.965-9.58 13.46 13.46 0 0 0-3.965-9.58z"></path></svg>