<?xml version="1.0" encoding="iso-8859-1"?>
<!-- Uploaded to: SVG Repo, www.svgrepo.com, Generator: SVG Repo Mixer Tools -->
<svg fill="#fff" height="800px" width="800px" version="1.1" id="Layer_1" xmlns="http://www.w3.org/2000/svg" xmlns:xlink="http://www.w3.org/1999/xlink" 
	 viewBox="0 0 512 512" xml:space="preserve">
<g>
	<g>
		<path d="M189.008,160.16v191.68L354.992,256L189.008,160.16z M205.008,187.872L322.992,256l-117.984,68.128V187.872z"/>
	</g>
</g>
<g>
	<g>
		<path d="M256,61.616C148.64,61.616,61.616,148.64,61.616,256S148.64,450.384,256,450.384S450.384,363.36,450.384,256
			S363.36,61.616,256,61.616z M256,434.384c-98.368,0-178.384-80.016-178.384-178.384S157.632,77.616,256,77.616
			S434.384,157.632,434.384,256S354.368,434.384,256,434.384z"/>
	</g>
</g>
<g>
	<g>
		<path d="M256,0C114.608,0,0,114.608,0,256s114.608,256,256,256s256-114.608,256-256S397.392,0,256,0z M256,496
			C123.664,496,16,388.336,16,256S123.664,16,256,16s240,107.664,240,240S388.336,496,256,496z"/>
	</g>
</g>
</svg>