<?xml version="1.0" encoding="iso-8859-1"?>
<!-- Uploaded to: SVG Repo, www.svgrepo.com, Generator: SVG Repo Mixer Tools -->
<!DOCTYPE svg PUBLIC "-//W3C//DTD SVG 1.1//EN" "http://www.w3.org/Graphics/SVG/1.1/DTD/svg11.dtd">
<svg fill="#000000" version="1.1" id="Capa_1" xmlns="http://www.w3.org/2000/svg" xmlns:xlink="http://www.w3.org/1999/xlink" 
	 width="800px" height="800px" viewBox="0 0 25.361 25.361"
	 xml:space="preserve">
<g>
	<path fill="grey" d="M23.86,0H1.5C0.673,0,0,0.671,0,1.5v22.361c0,0.828,0.672,1.5,1.5,1.5h22.36c0.828,0,1.5-0.672,1.5-1.5V1.5
		C25.36,0.671,24.688,0,23.86,0z M19.306,14.182h-5.125v5.125c0,0.83-0.672,1.5-1.5,1.5c-0.828,0-1.5-0.67-1.5-1.5v-5.125H6.056
		c-0.828,0-1.5-0.67-1.5-1.5c0-0.829,0.672-1.5,1.5-1.5h5.125V6.057c0-0.829,0.672-1.5,1.5-1.5c0.83,0,1.5,0.671,1.5,1.5v5.125
		h5.125c0.828,0,1.5,0.671,1.5,1.5C20.806,13.512,20.134,14.182,19.306,14.182z"/>
</g>
</svg>