<!DOCTYPE svg PUBLIC "-//W3C//DTD SVG 1.1//EN" "http://www.w3.org/Graphics/SVG/1.1/DTD/svg11.dtd">
<!-- Uploaded to: SVG Repo, www.svgrepo.com, Transformed by: SVG Repo Mixer Tools -->
<svg fill="#ffffff" width="64px" height="64px" viewBox="-2.64 -2.64 29.28 29.28" xmlns="http://www.w3.org/2000/svg" stroke="#ffffff" stroke-width="0.00024000000000000003" transform="rotate(180)">
<g id="SVGRepo_bgCarrier" stroke-width="0"/>
<g id="SVGRepo_tracerCarrier" stroke-linecap="round" stroke-linejoin="round" stroke="#CCCCCC" stroke-width="0.096"/>
<g id="SVGRepo_iconCarrier">
<path d="m0 22.835v-21.665c0-.007 0-.015 0-.024 0-.63.511-1.141 1.141-1.141.201 0 .391.052.555.144l-.006-.003 18.71 10.493v-10.038c0-.331.268-.6.599-.6h1.2c.332 0 .6.269.6.6v22.799.001c0 .331-.268.599-.599.599h-.001-1.2c-.331 0-.599-.268-.599-.599v-.001-10.038l-18.71 10.494c-.158.091-.347.145-.548.145-.632-.007-1.142-.521-1.142-1.155 0-.004 0-.008 0-.011v.001z"/>
</g>
</svg>