<svg role="img" xmlns="http://www.w3.org/2000/svg" fill="#ffffff" height="16" width="16" viewBox="0 0 16 16" class="Svg-sc-1bi12j5-0 hDgDGI"><path d="M13.323 3.454A6.985 6.985 0 007.997 1a7 7 0 104.549 12.323 7 7 0 00.777-9.869zM8.003 14a5.996 5.996 0 01-4.566-2.104 5.958 5.958 0 01-1.419-4.367 5.961 5.961 0 011.72-3.749l7.748 9.073A5.972 5.972 0 018.003 14zm4.258-1.781L4.513 3.147A5.978 5.978 0 017.997 2c1.76 0 3.424.767 4.565 2.103a5.96 5.96 0 011.419 4.367 5.946 5.946 0 01-1.72 3.749z"></path></svg>