<svg xmlns="http://www.w3.org/2000/svg" shape-rendering="geometricPrecision" text-rendering="geometricPrecision" image-rendering="optimizeQuality" fill-rule="evenodd" clip-rule="evenodd" viewBox="0 0 512 512.04"><path fill-rule="nonzero" d="M99.15 310.32 70 281.18c-18.29-19.58-55.77-13.06-57.74 15.71L.04 473.59c-.92 22.88 15.22 39.81 37.8 38.36l174.9-11.42c27.01-3.28 38.55-38.1 18.87-57.79l-29.89-29.81 211.16-211.16 29.04 29.04c19.21 20.47 56.6 10.27 58.48-18.58l11.48-173.88c1.7-22.05-15.7-39.19-37.8-38.32L299.22 11.45c-28.2 3.43-38.03 38.92-18.23 58.73l29.16 29.15-211 210.99zm0 33.79L343.94 99.33l-46.05-46.05c-5.73-5.73-4.14-16.99 4.02-18.11l173.76-11.33c6.79-.44 13.34 4.64 12.49 11.83l-11.57 175.07c-.5 7.7-12.49 9.13-17.35 3.69l-.42-.52-45.94-45.93-244.92 244.91 46.77 46.73c5.48 5.62 2.62 16.22-4.81 17.2-57.06 3.72-118.94 10.13-175.53 11.36-8.09-.34-10.39-6.32-10.56-13.33l12.24-176.37c.45-6.77 12.54-5.48 16.61-.92l46.47 46.55z"/></svg>