<?xml version="1.0" encoding="UTF-8" standalone="no"?>
<svg
   viewBox="0 0 436 480"
   version="1.1"
   id="svg1108"
   sodipodi:docname="search2.svg"
   width="436"
   height="480"
   inkscape:version="1.1.1 (3bf5ae0d25, 2021-09-20)"
   xmlns:inkscape="http://www.inkscape.org/namespaces/inkscape"
   xmlns:sodipodi="http://sodipodi.sourceforge.net/DTD/sodipodi-0.dtd"
   xmlns="http://www.w3.org/2000/svg"
   xmlns:svg="http://www.w3.org/2000/svg">
  <defs
     id="defs1112" />
  <sodipodi:namedview
     id="namedview1110"
     pagecolor="#ffffff"
     bordercolor="#666666"
     borderopacity="1.0"
     inkscape:pageshadow="2"
     inkscape:pageopacity="0.0"
     inkscape:pagecheckerboard="true"
     showgrid="false"
     fit-margin-top="0"
     fit-margin-left="0"
     fit-margin-right="0"
     fit-margin-bottom="0"
     inkscape:zoom="1.625"
     inkscape:cx="157.84615"
     inkscape:cy="269.23077"
     inkscape:window-width="1920"
     inkscape:window-height="1017"
     inkscape:window-x="-8"
     inkscape:window-y="-8"
     inkscape:window-maximized="1"
     inkscape:current-layer="svg1108" />
  <path
     d="m 324.6675,355.967 93.714,109.969 -16.254,13.969 -93.969,-109.969 q -48.508,36.825 -109.207,36.825 -36.826,0 -70.476,-14.349 -33.65,-14.349 -57.905,-38.603 -24.255,-24.254 -38.603,-57.905 -14.348,-33.651 -14.349,-70.476 -0.001,-36.825 14.349,-70.476 14.35,-33.651 38.603,-57.905 24.253,-24.254 57.905,-38.603 33.652,-14.349 70.476,-14.349 36.824,0 70.476,14.349 33.652,14.349 57.905,38.603 24.253,24.254 38.603,57.905 14.35,33.651 14.349,70.476 0,37.841 -14.73,71.619 -14.73,33.778 -40.889,58.921 z m -125.714,29.46 q 43.428,0 80.254,-21.461 36.826,-21.461 58.286,-58.286 21.46,-36.825 21.461,-80.254 10e-4,-43.429 -21.461,-80.254 -21.462,-36.825 -58.286,-58.285 -36.824,-21.46 -80.254,-21.46 -43.43,0 -80.254,21.46 -36.824,21.46 -58.285,58.285 -21.461,36.825 -21.46,80.254 10e-4,43.429 21.46,80.254 21.459,36.825 58.285,58.286 36.826,21.461 80.254,21.461 z"
     fill="#ffffff"
     fill-rule="evenodd"
     id="path1106" />
</svg>
