<?xml version="1.0" encoding="utf-8"?>

<!-- Uploaded to: SVG Repo, www.svgrepo.com, Generator: SVG Repo Mixer Tools -->
<svg fill="#000000" height="800px" width="800px" version="1.1" id="Icons" xmlns="http://www.w3.org/2000/svg" xmlns:xlink="http://www.w3.org/1999/xlink" 
	 viewBox="0 0 32 32" xml:space="preserve">
<g>
	<path d="M22.6,19.8c-0.3-0.2-0.7-0.3-1.1-0.1c-0.3,0.2-0.6,0.5-0.6,0.9V22c-3.3,0-6-2.7-6-6c0-4.4-3.6-8-8-8C6.4,8,6,8.4,6,9
		s0.4,1,1,1c3.3,0,6,2.7,6,6s-2.7,6-6,6c-0.6,0-1,0.4-1,1s0.4,1,1,1c3,0,5.6-1.7,7-4.1c1.4,2.5,4,4.1,7,4.1v1.4
		c0,0.4,0.2,0.7,0.6,0.9c0.1,0.1,0.3,0.1,0.4,0.1c0.2,0,0.4-0.1,0.6-0.2l3-2.4c0.2-0.2,0.4-0.5,0.4-0.8s-0.1-0.6-0.4-0.8L22.6,19.8z
		"/>
	<path d="M15.8,12.3c0.3,0,0.5-0.1,0.7-0.3c1.1-1.3,2.8-2,4.5-2v1.4c0,0.4,0.2,0.7,0.6,0.9c0.1,0.1,0.3,0.1,0.4,0.1
		c0.2,0,0.4-0.1,0.6-0.2l3-2.4C25.9,9.6,26,9.3,26,9s-0.1-0.6-0.4-0.8l-3-2.4c-0.3-0.2-0.7-0.3-1.1-0.1C21.2,5.9,21,6.2,21,6.6V8
		c-2.3,0-4.4,1-6,2.7c-0.4,0.4-0.3,1,0.1,1.4C15.3,12.2,15.6,12.3,15.8,12.3z"/>
</g>
</svg>