<!DOCTYPE svg PUBLIC "-//W3C//DTD SVG 1.1//EN" "http://www.w3.org/Graphics/SVG/1.1/DTD/svg11.dtd">
<!-- Uploaded to: SVG Repo, www.svgrepo.com, Transformed by: SVG Repo Mixer Tools -->
<svg fill="#7a7a7a" version="1.1" id="Capa_1" xmlns="http://www.w3.org/2000/svg" xmlns:xlink="http://www.w3.org/1999/xlink" width="800px" height="800px" viewBox="0 0 25.361 25.362" xml:space="preserve" stroke="#7a7a7a">
<g id="SVGRepo_bgCarrier" stroke-width="0"/>
<g id="SVGRepo_tracerCarrier" stroke-linecap="round" stroke-linejoin="round" stroke="#CCCCCC" stroke-width="0.050722"/>
<g id="SVGRepo_iconCarrier"> <g> <path d="M23.862,0H1.5C0.672,0,0,0.673,0,1.5v22.36c0,0.827,0.672,1.5,1.5,1.5h22.361c0.828,0,1.5-0.673,1.5-1.5V1.5 C25.362,0.673,24.689,0,23.862,0z M22.362,22.363H3V3h19.361L22.362,22.363L22.362,22.363z M4.555,12.682 c0-0.829,0.672-1.5,1.5-1.5h5.125V6.057c0-0.828,0.672-1.5,1.5-1.5c0.828,0,1.5,0.672,1.5,1.5v5.125h5.125 c0.828,0,1.5,0.672,1.5,1.5c0,0.828-0.672,1.5-1.5,1.5H14.18v5.125c0,0.828-0.672,1.5-1.5,1.5c-0.828,0-1.5-0.672-1.5-1.5v-5.125 H6.055C5.227,14.182,4.555,13.51,4.555,12.682z"/> </g> </g>
</svg>