<?xml version="1.0" encoding="utf-8"?>
<!-- Uploaded to: SVG Repo, www.svgrepo.com, Generator: SVG Repo Mixer Tools -->
<svg fill="#000000" width="800px" height="800px" viewBox="0 0 32 32" version="1.1" xmlns="http://www.w3.org/2000/svg">
<title>backward-step</title>
<path d="M22.529 4.868c-0.155-0.075-0.338-0.118-0.53-0.118-0.305 0-0.585 0.11-0.802 0.292l0.002-0.002-9.949 8.292v-7.332c0-0.69-0.56-1.25-1.25-1.25s-1.25 0.56-1.25 1.25v0 20c0 0.69 0.56 1.25 1.25 1.25s1.25-0.56 1.25-1.25v0-7.332l9.949 8.292c0.215 0.18 0.495 0.29 0.8 0.29 0.691 0 1.25-0.56 1.25-1.25 0-0 0-0 0-0v0-20c-0-0.498-0.292-0.928-0.713-1.129l-0.008-0.003zM20.75 23.332l-8.798-7.332 8.798-7.331z"></path>
</svg>