<?xml version="1.0" encoding="utf-8"?>
<!-- Uploaded to: SVG Repo, www.svgrepo.com, Generator: SVG Repo Mixer Tools -->
<svg width="800px" height="800px" viewBox="0 0 1024 1024" class="icon"  version="1.1" xmlns="http://www.w3.org/2000/svg"><path d="M758.8 756.6c16.8 40 7.2 84.1-33.3 84.1H303.4c-40.5 0-50.1-44.1-33.3-84.1H150c-46.4 0-84-37.7-84-84.3v-420c0-46.6 37.4-84.3 84-84.3h728.9c46.4 0 84 37.7 84 84.3v419.9c0 46.6-37.4 84.3-84 84.3H758.8v0.1z" fill="#5E676F" /><path d="M689.9 756.6c13.2 9.7 20.2 28 20.2 28H318.8s7-18.3 20.2-28h350.9zM122.1 252.3v419.9c0 15.7 12.5 28.3 27.9 28.3h728.9c15.5 0 27.9-12.5 27.9-28.3V252.3c0-15.7-12.5-28.3-27.9-28.3H150c-15.5 0.1-27.9 12.6-27.9 28.3z" fill="#FFFFFF" /><path d="M150.1 307.9c0-30.8 25.1-55.8 56-55.8h616.8c30.9 0 56 25 56 55.8v308.8c0 30.8-25.1 55.8-56 55.8H206.1c-30.9 0-56-25-56-55.8V307.9z" fill="#5E676F" /><path d="M178.1 307.9v308.8c0 15.3 12.5 27.8 27.9 27.8h616.8c15.4 0 27.9-12.5 27.9-27.8V307.9c0-15.3-12.5-27.8-27.9-27.8H206.1c-15.4 0-28 12.5-28 27.8z" fill="#FFFFFF" /></svg>